<?xml version="1.0" standalone="no"?>
<!DOCTYPE svg PUBLIC "-//W3C//DTD SVG 20010904//EN"
 "http://www.w3.org/TR/2001/REC-SVG-20010904/DTD/svg10.dtd">
<svg version="1.0" xmlns="http://www.w3.org/2000/svg"
 width="598.000000pt" height="598.000000pt" viewBox="0 0 598.000000 598.000000"
 preserveAspectRatio="xMidYMid meet">
<metadata>
Created by potrace 1.14, written by Peter Selinger 2001-2017
</metadata>
<g transform="translate(0.000000,598.000000) scale(0.100000,-0.100000)"
fill="#000000" stroke="none">
<path d="M1467 5189 c-95 -22 -186 -99 -235 -199 l-27 -55 0 -275 0 -275 233
-3 232 -2 0 180 0 180 1665 0 1665 0 1 -507 c1 -976 10 -2058 17 -2061 4 -1
106 24 227 56 l220 59 0 1319 0 1319 -26 55 c-48 102 -129 174 -229 204 -48
14 -231 16 -1879 15 -1024 -1 -1843 -5 -1864 -10z"/>
<path d="M3045 4421 c-143 -49 -404 -140 -580 -201 -176 -62 -381 -132 -455
-157 -74 -24 -145 -53 -157 -65 -22 -21 -23 -27 -23 -210 l0 -188 -866 0 -866
0 -29 -29 c-39 -39 -39 -80 0 -123 l29 -33 1251 -3 1250 -2 21 -27 c26 -33 21
-79 -11 -105 -19 -16 -54 -18 -400 -18 l-379 0 0 -68 0 -69 -667 -6 -668 -7
-22 -26 c-33 -37 -31 -88 6 -125 l29 -29 1082 0 c686 0 1088 -4 1100 -10 51
-28 38 -118 -20 -139 -23 -7 -161 -11 -436 -11 l-404 0 0 -85 0 -85 -850 0
c-933 0 -904 2 -929 -59 -28 -66 17 -126 102 -135 29 -3 622 -8 1319 -11 889
-4 1276 -9 1298 -17 42 -14 64 -63 49 -107 -23 -64 42 -61 -1177 -61 -765 0
-1119 -3 -1140 -11 -66 -23 -82 -97 -33 -151 l29 -33 1004 -5 1003 -5 55 -24
c67 -28 249 -94 652 -237 l97 -34 578 198 c318 109 645 220 726 246 143 45
149 48 163 81 12 29 14 169 14 869 0 506 -4 845 -10 860 -12 32 -46 54 -128
82 -140 47 -365 125 -572 200 -245 87 -759 264 -768 264 -4 0 -124 -40 -267
-89z m526 -247 c134 -47 388 -134 563 -193 176 -59 315 -110 310 -113 -5 -3
-112 -40 -239 -81 -126 -42 -376 -125 -555 -185 l-325 -110 -5 -758 -5 -759
-5 755 -5 755 -210 72 c-115 39 -351 119 -523 178 -173 59 -331 114 -353 123
l-39 17 382 128 c211 70 464 156 563 191 99 35 185 64 191 65 6 1 121 -38 255
-85z"/>
<path d="M479 4101 c-39 -39 -39 -80 0 -123 l29 -33 512 -3 511 -3 30 30 c40
41 40 91 0 132 l-29 29 -512 0 -512 0 -29 -29z"/>
<path d="M5660 2105 c-41 -13 -165 -46 -275 -75 -232 -60 -400 -105 -468 -127
-74 -23 -119 -74 -178 -199 -97 -206 -312 -699 -319 -732 -10 -40 5 -99 32
-128 10 -12 37 -30 59 -40 47 -21 10 -28 469 96 168 45 334 89 370 97 88 21
152 57 188 107 46 64 67 108 302 631 100 223 102 229 90 274 -20 77 -77 122
-152 120 -24 -1 -77 -11 -118 -24z m-143 -367 c-3 -7 -23 -53 -45 -103 -22
-49 -55 -133 -75 -185 -20 -52 -46 -119 -59 -148 l-23 -52 -45 45 c-24 25 -50
45 -57 45 -8 0 -50 -18 -94 -41 -85 -42 -283 -129 -296 -129 -4 0 29 37 73 83
75 76 204 232 204 246 0 3 -25 34 -56 69 -35 39 -51 63 -42 66 7 2 94 22 193
45 352 81 330 77 322 59z"/>
<path d="M1204 1735 c-3 -8 -4 -110 -2 -227 3 -206 4 -215 30 -270 34 -72 98
-142 163 -176 l50 -27 1371 -3 1371 -2 106 221 c59 121 107 225 107 230 0 5
-543 9 -1365 9 l-1365 0 0 130 0 130 -230 0 c-195 0 -232 -2 -236 -15z"/>
</g>
</svg>
